<mxfile host="65bd71144e">
    <diagram id="52S8A5fsknrC7vzfv0PT" name="ページ1">
        <mxGraphModel dx="1604" dy="1255" grid="1" gridSize="10" guides="1" tooltips="1" connect="1" arrows="1" fold="1" page="1" pageScale="1" pageWidth="827" pageHeight="1169" math="0" shadow="0">
            <root>
                <mxCell id="0"/>
                <mxCell id="1" parent="0"/>
                <mxCell id="2" value="Service :&lt;br&gt;&amp;nbsp; info&lt;br&gt;Context :&lt;br&gt;&amp;nbsp; authN" style="shape=note;whiteSpace=wrap;html=1;backgroundOutline=1;darkOpacity=0.05;fillColor=none;align=left;" vertex="1" parent="1">
                    <mxGeometry width="92" height="100" as="geometry"/>
                </mxCell>
            </root>
        </mxGraphModel>
    </diagram>
</mxfile>
